<svg width="280" height="58" fill="none" xmlns="http://www.w3.org/2000/svg"><path d="M11.61 38.82H9.335l1.139-21.626 1.138 21.625Zm.987 18.569h9.334L16.847.535H4.705L0 57.389h8.272l.53-10.24h3.264l.531 10.24ZM35.603 58c6.906 0 10.093-4.432 10.093-9.4V.536h-9.79v46.92c0 .993-.379 1.452-1.062 1.452s-.986-.459-.986-1.452V.535h-9.866V48.6c0 5.043 2.732 9.399 10.093 9.399h1.518ZM52.88 57.389h9.486V9.246h4.325V.535H48.554v8.711h4.326V57.39ZM91.129 11.233C91.129 4.433 88.093 0 80.884 0h-1.518c-7.209 0-10.245 4.203-10.245 11.233V46.92c0 7.03 3.567 11.004 10.245 11.004h1.594c6.299 0 10.169-3.898 10.169-11.004V11.233ZM81.263 47.76c0 .994-.379 1.529-1.138 1.529-.683 0-1.062-.535-1.062-1.529V10.163c0-1.146.38-1.68 1.062-1.68.759 0 1.138.534 1.138 1.68V47.76ZM94.056 30.108v8.711h9.562v-8.711h-9.562ZM106.543 57.389h7.893v-31.79l2.883 31.79h3.415l2.808-31.79v31.79h8.044V.535h-10.7l-1.669 27.586-1.67-27.586h-11.004v56.854ZM145.368 38.82h-2.276l1.138-21.626 1.138 21.625Zm.987 18.569h9.334L150.604.535h-12.142l-4.705 56.854h8.272l.531-10.24h3.263l.532 10.24ZM165.268 57.924c3.263 0 5.236-2.064 6.526-4.127.304.688.759 2.751.987 3.592h6.45v-33.47h-11.079v7.412h1.973v16.964c0 1.146-.456 1.758-1.366 1.758-.911 0-1.366-.612-1.366-1.758V9.475c0-.993.379-1.451 1.062-1.451.911 0 1.138.535 1.138 1.452v12.38h9.259V9.093c0-4.585-2.201-9.094-9.866-9.094h-1.29c-7.589 0-10.169 4.585-10.169 9.858v38.666c0 5.044 2.429 9.4 7.513 9.4h.228ZM193.017 38.82h-2.277l1.139-21.626 1.138 21.625Zm.987 18.569h9.334L198.253.535h-12.142l-4.705 56.854h8.272l.531-10.24h3.263l.532 10.24ZM205.623.535V9.17h7.209l-7.513 40.271v7.948h18.365v-8.712h-8.044l7.664-40.195V.535h-17.681ZM236.119.535h-9.638v56.854h9.638V.535ZM239.189.535v56.854h8.044l-.076-34.082 4.478 34.082h8.879V.535h-7.969l.076 30.796L248.903.535h-9.714ZM263.532.535v56.854H280v-8.865h-7.058v-16.43h5.768v-9.016h-5.768V9.246h6.83V.535h-16.24Z" fill="#E1FD2C"/></svg>